<?xml version="1.0" encoding="utf-8"?>
<!-- Generator: Adobe Illustrator 22.0.0, SVG Export Plug-In . SVG Version: 6.00 Build 0)  -->
<svg version="1.1" id="Ebene_1" xmlns="http://www.w3.org/2000/svg" xmlns:xlink="http://www.w3.org/1999/xlink" x="0px" y="0px"
	 viewBox="0 0 956 298" style="enable-background:new 0 0 956 298;" xml:space="preserve">
<style type="text/css">
	.st0{display:none;}
	.st1{display:inline;fill:#FFFFFF;}
	.st2{fill:#FFFFFF;}
	.st3{fill:#00A8FF;}
	.st4{fill:none;stroke:#00A8FF;stroke-width:1.5;stroke-miterlimit:10;}
</style>
<g id="whg7il_1_" class="st0">
</g>
<g class="st0">
	<rect x="-112" y="-71.5" class="st1" width="1197" height="447"/>
</g>
<g>
	<path class="st2" d="M43.3,112c-16,0-29-13-29-29s13-29,29-29s29,13,29,29S59.2,112,43.3,112z"/>
	<g>
		<path class="st3" d="M43.3,54.8c15.6,0,28.2,12.7,28.2,28.2s-12.7,28.2-28.2,28.2S15,98.6,15,83S27.7,54.8,43.3,54.8 M43.3,53.3
			c-16.4,0-29.7,13.3-29.7,29.7s13.3,29.7,29.7,29.7S73,99.4,73,83S59.7,53.3,43.3,53.3L43.3,53.3z"/>
	</g>
</g>
<g>
	<circle class="st2" cx="906.5" cy="83" r="29.5"/>
	<path class="st3" d="M906.5,56.5c14.6,0,26.5,11.9,26.5,26.5s-11.9,26.5-26.5,26.5S880,97.6,880,83S891.9,56.5,906.5,56.5
		 M906.5,50.5C888.6,50.5,874,65.1,874,83s14.6,32.5,32.5,32.5S939,100.9,939,83S924.4,50.5,906.5,50.5L906.5,50.5z"/>
</g>
<g>
	<path class="st2" d="M650.3,247.5c-19,0-34.5-15.5-34.5-34.5s15.5-34.5,34.5-34.5s34.5,15.5,34.5,34.5S669.3,247.5,650.3,247.5z"/>
	<g>
		<path class="st3" d="M650.3,179.2c18.6,0,33.8,15.1,33.8,33.8s-15.1,33.8-33.8,33.8c-18.6,0-33.8-15.1-33.8-33.8
			S631.6,179.2,650.3,179.2 M650.3,177.7c-19.5,0-35.3,15.8-35.3,35.3s15.8,35.3,35.3,35.3s35.3-15.8,35.3-35.3
			S669.7,177.7,650.3,177.7L650.3,177.7z"/>
	</g>
</g>
<g>
	<circle class="st2" cx="650.3" cy="213" r="29.2"/>
	<g>
		<path class="st3" d="M650.3,184.5c15.7,0,28.5,12.8,28.5,28.5s-12.8,28.5-28.5,28.5s-28.5-12.8-28.5-28.5S634.5,184.5,650.3,184.5
			 M650.3,183c-16.6,0-30,13.4-30,30s13.4,30,30,30s30-13.4,30-30S666.8,183,650.3,183L650.3,183z"/>
	</g>
</g>
<g>
	<path d="M33.5,132c0,1-0.4,1.8-1.1,2.4c-0.7,0.6-1.7,0.8-3,0.8c-1.4,0-2.4-0.2-3.1-0.5v-1.3c0.5,0.2,1,0.4,1.5,0.5
		c0.6,0.1,1.1,0.2,1.6,0.2c0.9,0,1.6-0.2,2-0.5s0.7-0.8,0.7-1.4c0-0.4-0.1-0.7-0.2-1c-0.2-0.3-0.4-0.5-0.8-0.7s-0.9-0.5-1.7-0.7
		c-1.1-0.4-1.8-0.8-2.3-1.4c-0.5-0.5-0.7-1.2-0.7-2c0-0.9,0.3-1.6,1-2.1s1.5-0.8,2.6-0.8s2.2,0.2,3.1,0.6l-0.4,1.2
		c-0.9-0.4-1.9-0.6-2.8-0.6c-0.7,0-1.3,0.2-1.6,0.5c-0.4,0.3-0.6,0.7-0.6,1.3c0,0.4,0.1,0.7,0.2,1s0.4,0.5,0.7,0.7
		c0.3,0.2,0.9,0.4,1.6,0.7c1.2,0.4,2,0.9,2.5,1.4C33.3,130.5,33.5,131.2,33.5,132z"/>
	<path d="M38.4,134.1c0.2,0,0.5,0,0.7-0.1c0.2,0,0.4-0.1,0.5-0.1v1c-0.1,0.1-0.3,0.1-0.6,0.2c-0.3,0-0.5,0.1-0.7,0.1
		c-1.7,0-2.5-0.9-2.5-2.6v-5.1h-1.2v-0.6l1.2-0.5l0.5-1.8h0.8v2h2.5v1H37v5c0,0.5,0.1,0.9,0.4,1.2C37.7,133.9,38,134.1,38.4,134.1z"
		/>
	<path d="M46.6,135l-0.3-1.2h-0.1c-0.4,0.5-0.9,0.9-1.3,1.1c-0.4,0.2-1,0.3-1.6,0.3c-0.8,0-1.5-0.2-2-0.7c-0.5-0.4-0.7-1.1-0.7-1.9
		c0-1.7,1.4-2.6,4.1-2.7h1.5v-0.5c0-0.7-0.1-1.2-0.4-1.5s-0.8-0.5-1.4-0.5c-0.7,0-1.5,0.2-2.4,0.7l-0.4-1c0.4-0.2,0.9-0.4,1.4-0.5
		s1-0.2,1.5-0.2c1,0,1.8,0.2,2.3,0.7s0.7,1.2,0.7,2.2v5.8h-0.9V135z M43.6,134.1c0.8,0,1.4-0.2,1.9-0.7c0.5-0.4,0.7-1.1,0.7-1.9
		v-0.8l-1.3,0.1c-1,0-1.8,0.2-2.2,0.5c-0.5,0.3-0.7,0.7-0.7,1.3c0,0.5,0.1,0.8,0.4,1.1C42.7,134,43.1,134.1,43.6,134.1z"/>
	<path d="M54.1,126.3c0.4,0,0.7,0,1,0.1l-0.2,1.2c-0.4-0.1-0.7-0.1-0.9-0.1c-0.7,0-1.3,0.3-1.8,0.8s-0.7,1.3-0.7,2.1v4.6h-1.3v-8.6
		h1.1l0.1,1.6h0.1c0.3-0.6,0.7-1,1.1-1.3C53.1,126.4,53.6,126.3,54.1,126.3z"/>
	<path d="M59.5,134.1c0.2,0,0.5,0,0.7-0.1c0.2,0,0.4-0.1,0.5-0.1v1c-0.1,0.1-0.3,0.1-0.6,0.2c-0.3,0-0.5,0.1-0.7,0.1
		c-1.7,0-2.5-0.9-2.5-2.6v-5.1h-1.2v-0.6l1.2-0.5l0.5-1.8h0.8v2h2.5v1h-2.5v5c0,0.5,0.1,0.9,0.4,1.2
		C58.7,133.9,59.1,134.1,59.5,134.1z"/>
	<path d="M19.3,154.2H18l-2.3-7.6c-0.1-0.3-0.2-0.8-0.4-1.3c-0.1-0.5-0.2-0.8-0.2-0.9c-0.1,0.7-0.3,1.4-0.5,2.3l-2.2,7.6H11l-3-11.4
		h1.4l1.8,7.1c0.2,1,0.4,1.9,0.5,2.7c0.1-1,0.3-1.9,0.6-2.8l2-6.9h1.4l2.1,7c0.2,0.8,0.5,1.7,0.6,2.7c0.1-0.7,0.3-1.6,0.6-2.7l1.8-7
		h1.4L19.3,154.2z"/>
	<path d="M31.3,149.9c0,1.4-0.4,2.5-1.1,3.3s-1.7,1.2-2.9,1.2c-0.8,0-1.4-0.2-2-0.5s-1.1-0.9-1.4-1.5c-0.3-0.7-0.5-1.5-0.5-2.4
		c0-1.4,0.3-2.5,1-3.3s1.7-1.2,2.9-1.2c1.2,0,2.1,0.4,2.9,1.2C31,147.5,31.3,148.6,31.3,149.9z M24.8,149.9c0,1.1,0.2,1.9,0.7,2.5
		c0.4,0.6,1.1,0.9,1.9,0.9s1.5-0.3,1.9-0.9c0.4-0.6,0.7-1.4,0.7-2.5s-0.2-1.9-0.7-2.5c-0.4-0.6-1.1-0.8-1.9-0.8s-1.5,0.3-1.9,0.8
		C25,148,24.8,148.8,24.8,149.9z"/>
	<path d="M37.5,145.5c0.4,0,0.7,0,1,0.1l-0.2,1.2c-0.4-0.1-0.7-0.1-0.9-0.1c-0.7,0-1.3,0.3-1.8,0.8s-0.7,1.3-0.7,2.1v4.6h-1.3v-8.6
		h1.1l0.1,1.6h0.1c0.3-0.6,0.7-1,1.1-1.3C36.5,145.6,37,145.5,37.5,145.5z"/>
	<path d="M41.4,149.8c0.2-0.3,0.6-0.7,1-1.2l2.8-2.9h1.5l-3.5,3.6l3.7,4.9h-1.6l-3-4l-1,0.8v3.2H40V142h1.3v6.4
		C41.4,148.8,41.4,149.2,41.4,149.8L41.4,149.8z"/>
	<path d="M52.4,146.6h-2.2v7.6h-1.3v-7.6h-1.5V146l1.5-0.5V145c0-2.1,0.9-3.2,2.8-3.2c0.5,0,1,0.1,1.6,0.3l-0.3,1
		c-0.5-0.2-0.9-0.2-1.3-0.2c-0.5,0-0.9,0.2-1.1,0.5s-0.4,0.8-0.4,1.6v0.6h2.2C52.4,145.6,52.4,146.6,52.4,146.6z M55.3,154.2H54V142
		h1.3V154.2z"/>
	<path d="M65.4,149.9c0,1.4-0.4,2.5-1.1,3.3c-0.7,0.8-1.7,1.2-2.9,1.2c-0.8,0-1.4-0.2-2-0.5s-1.1-0.9-1.4-1.5
		c-0.3-0.7-0.5-1.5-0.5-2.4c0-1.4,0.3-2.5,1-3.3s1.7-1.2,2.9-1.2s2.1,0.4,2.9,1.2C65,147.5,65.4,148.6,65.4,149.9z M58.9,149.9
		c0,1.1,0.2,1.9,0.7,2.5c0.4,0.6,1.1,0.9,1.9,0.9c0.8,0,1.5-0.3,1.9-0.9c0.4-0.6,0.7-1.4,0.7-2.5s-0.2-1.9-0.7-2.5
		c-0.4-0.6-1.1-0.8-1.9-0.8c-0.8,0-1.5,0.3-1.9,0.8C59.1,148,58.9,148.8,58.9,149.9z"/>
	<path d="M74.7,154.2l-1.6-5c-0.1-0.3-0.3-1-0.6-2.1h-0.1c-0.2,0.9-0.4,1.6-0.5,2.1l-1.6,5h-1.5l-2.3-8.6h1.4c0.6,2.2,1,3.8,1.3,4.9
		s0.5,1.9,0.5,2.3h0.1c0.1-0.3,0.1-0.7,0.3-1.2c0.1-0.5,0.2-0.8,0.3-1.1l1.6-4.9h1.4l1.5,4.9c0.3,0.9,0.5,1.6,0.6,2.3h0.1
		c0-0.2,0.1-0.5,0.2-0.9c0.1-0.4,0.6-2.5,1.6-6.3h1.3l-2.4,8.6H74.7z"/>
</g>
<g>
	<path d="M164.1,78.1h-6.4V66.7h6.4v1.2h-5v3.7h4.7v1.2H159V77h5v1.1H164.1z"/>
	<path d="M168.5,73.7l-3-4.2h1.5l2.3,3.3l2.2-3.3h1.5l-3,4.2l3.1,4.4h-1.5l-2.4-3.5l-2.4,3.5h-1.5L168.5,73.7z"/>
	<path d="M178.4,78.2c-1.3,0-2.3-0.4-3-1.2s-1.1-1.8-1.1-3.2s0.3-2.5,1-3.3s1.6-1.2,2.7-1.2c1.1,0,1.9,0.4,2.5,1.1s0.9,1.6,0.9,2.8
		V74h-5.9c0,1,0.3,1.8,0.8,2.3s1.2,0.8,2,0.8c0.9,0,1.8-0.2,2.7-0.6v1.2c-0.5,0.2-0.9,0.3-1.3,0.4C179.5,78.2,179,78.2,178.4,78.2z
		 M178.1,70.5c-0.7,0-1.2,0.2-1.6,0.7c-0.4,0.4-0.6,1.1-0.7,1.9h4.5c0-0.8-0.2-1.4-0.5-1.9C179.3,70.7,178.7,70.5,178.1,70.5z"/>
	<path d="M187.2,78.2c-1.2,0-2.2-0.4-2.9-1.1c-0.7-0.8-1-1.8-1-3.2s0.3-2.5,1-3.3c0.7-0.8,1.7-1.2,2.9-1.2c0.4,0,0.8,0,1.2,0.1
		c0.4,0.1,0.7,0.2,1,0.3l-0.4,1.1c-0.3-0.1-0.6-0.2-0.9-0.3c-0.3-0.1-0.6-0.1-0.9-0.1c-1.7,0-2.6,1.1-2.6,3.3c0,1.1,0.2,1.9,0.6,2.4
		c0.4,0.6,1.1,0.8,1.9,0.8c0.7,0,1.4-0.2,2.2-0.5v1.1C188.8,78.1,188.1,78.2,187.2,78.2z"/>
	<path d="M192.6,69.5v5.6c0,0.7,0.2,1.2,0.5,1.6c0.3,0.3,0.8,0.5,1.5,0.5c0.9,0,1.6-0.2,2-0.7s0.6-1.3,0.6-2.4v-4.5h1.3v8.6h-1.1
		l-0.2-1.1h-0.1c-0.3,0.4-0.6,0.7-1.1,1c-0.5,0.2-1,0.3-1.6,0.3c-1,0-1.8-0.2-2.3-0.7s-0.8-1.3-0.8-2.4v-5.6h1.3V69.5z"/>
	<path d="M204,77.2c0.2,0,0.5,0,0.7-0.1c0.2,0,0.4-0.1,0.5-0.1v1c-0.1,0.1-0.3,0.1-0.6,0.2c-0.3,0-0.5,0.1-0.7,0.1
		c-1.7,0-2.5-0.9-2.5-2.6v-5.1h-1.2V70l1.2-0.5l0.5-1.8h0.8v2h2.5v1h-2.5v5c0,0.5,0.1,0.9,0.4,1.2C203.2,77,203.6,77.2,204,77.2z"/>
	<path d="M210.5,78.2c-1.3,0-2.3-0.4-3-1.2s-1.1-1.8-1.1-3.2s0.3-2.5,1-3.3s1.6-1.2,2.7-1.2s1.9,0.4,2.5,1.1s0.9,1.6,0.9,2.8V74
		h-5.9c0,1,0.3,1.8,0.8,2.3s1.2,0.8,2,0.8c0.9,0,1.8-0.2,2.7-0.6v1.2c-0.5,0.2-0.9,0.3-1.3,0.4C211.6,78.2,211.1,78.2,210.5,78.2z
		 M210.1,70.5c-0.7,0-1.2,0.2-1.6,0.7c-0.4,0.4-0.6,1.1-0.7,1.9h4.5c0-0.8-0.2-1.4-0.5-1.9C211.3,70.7,210.8,70.5,210.1,70.5z"/>
	<path d="M166.8,94.2c0,1-0.4,1.8-1.1,2.4c-0.7,0.6-1.7,0.8-3,0.8c-1.4,0-2.4-0.2-3.1-0.5v-1.3c0.5,0.2,1,0.4,1.5,0.5
		c0.6,0.1,1.1,0.2,1.6,0.2c0.9,0,1.6-0.2,2-0.5s0.7-0.8,0.7-1.4c0-0.4-0.1-0.7-0.2-1c-0.2-0.3-0.4-0.5-0.8-0.7
		c-0.4-0.2-0.9-0.5-1.7-0.7c-1.1-0.4-1.8-0.8-2.3-1.4c-0.5-0.5-0.7-1.2-0.7-2c0-0.9,0.3-1.6,1-2.1s1.5-0.8,2.6-0.8s2.2,0.2,3.1,0.6
		l-0.4,1.2c-0.9-0.4-1.9-0.6-2.8-0.6c-0.7,0-1.3,0.2-1.6,0.5c-0.4,0.3-0.6,0.7-0.6,1.3c0,0.4,0.1,0.7,0.2,1c0.1,0.3,0.4,0.5,0.7,0.7
		s0.9,0.4,1.6,0.7c1.2,0.4,2,0.9,2.5,1.4C166.6,92.8,166.8,93.5,166.8,94.2z"/>
	<path d="M172.6,97.4c-1.3,0-2.3-0.4-3-1.2s-1.1-1.8-1.1-3.2s0.3-2.5,1-3.3s1.6-1.2,2.7-1.2c1.1,0,1.9,0.4,2.5,1.1
		c0.6,0.7,0.9,1.6,0.9,2.8v0.8h-5.9c0,1,0.3,1.8,0.8,2.3s1.2,0.8,2,0.8c0.9,0,1.8-0.2,2.7-0.6v1.2c-0.5,0.2-0.9,0.3-1.3,0.4
		C173.7,97.4,173.2,97.4,172.6,97.4z M172.3,89.7c-0.7,0-1.2,0.2-1.6,0.7c-0.4,0.4-0.6,1.1-0.7,1.9h4.5c0-0.8-0.2-1.4-0.5-1.9
		C173.5,89.9,172.9,89.7,172.3,89.7z"/>
	<path d="M181.9,88.6c0.4,0,0.7,0,1,0.1l-0.2,1.2c-0.4-0.1-0.7-0.1-0.9-0.1c-0.7,0-1.3,0.3-1.8,0.8s-0.7,1.3-0.7,2.1v4.6H178v-8.6
		h1.1l0.1,1.6h0.1c0.3-0.6,0.7-1,1.1-1.3C180.8,88.7,181.3,88.6,181.9,88.6z"/>
	<path d="M186.4,97.3l-3.2-8.6h1.4l1.8,5.1c0.4,1.2,0.7,2,0.7,2.3h0.1c0.1-0.3,0.2-0.8,0.5-1.7s1-2.8,2.1-5.7h1.4l-3.2,8.6
		L186.4,97.3L186.4,97.3z"/>
	<path d="M192.4,86.4c0-0.3,0.1-0.5,0.2-0.7c0.1-0.1,0.3-0.2,0.5-0.2s0.4,0.1,0.5,0.2c0.2,0.1,0.2,0.4,0.2,0.6
		c0,0.3-0.1,0.5-0.2,0.7c-0.2,0.1-0.3,0.2-0.5,0.2s-0.4-0.1-0.5-0.2C192.5,86.9,192.4,86.7,192.4,86.4z M193.8,97.3h-1.3v-8.6h1.3
		V97.3z"/>
	<path d="M200,97.4c-1.2,0-2.2-0.4-2.9-1.1c-0.7-0.8-1-1.8-1-3.2s0.3-2.5,1-3.3s1.7-1.2,2.9-1.2c0.4,0,0.8,0,1.2,0.1
		c0.4,0.1,0.7,0.2,1,0.3l-0.4,1.1c-0.3-0.1-0.6-0.2-0.9-0.3s-0.6-0.1-0.9-0.1c-1.7,0-2.6,1.1-2.6,3.3c0,1.1,0.2,1.9,0.6,2.4
		c0.4,0.6,1.1,0.8,1.9,0.8c0.7,0,1.4-0.2,2.2-0.5v1.1C201.6,97.3,200.9,97.4,200,97.4z"/>
	<path d="M207.8,97.4c-1.3,0-2.3-0.4-3-1.2s-1.1-1.8-1.1-3.2s0.3-2.5,1-3.3s1.6-1.2,2.7-1.2s1.9,0.4,2.5,1.1
		c0.6,0.7,0.9,1.6,0.9,2.8v0.8H205c0,1,0.3,1.8,0.8,2.3s1.2,0.8,2,0.8c0.9,0,1.8-0.2,2.7-0.6v1.2c-0.5,0.2-0.9,0.3-1.3,0.4
		C208.9,97.4,208.4,97.4,207.8,97.4z M207.4,89.7c-0.7,0-1.2,0.2-1.6,0.7c-0.4,0.4-0.6,1.1-0.7,1.9h4.5c0-0.8-0.2-1.4-0.5-1.9
		C208.6,89.9,208.1,89.7,207.4,89.7z"/>
</g>
<g>
	<path d="M350.6,78.1L346.7,68h-0.1c0.1,0.8,0.1,1.8,0.1,2.9v7.3h-1.2V66.8h2l3.6,9.4h0.1l3.6-9.4h2v11.4h-1.3v-7.4
		c0-0.8,0-1.8,0.1-2.8h-0.1l-3.9,10.1H350.6z"/>
	<path d="M365,78.1l-0.3-1.2h-0.1c-0.4,0.5-0.9,0.9-1.3,1.1c-0.4,0.2-1,0.3-1.6,0.3c-0.8,0-1.5-0.2-2-0.7c-0.5-0.4-0.7-1.1-0.7-1.9
		c0-1.7,1.4-2.6,4.1-2.7h1.5v-0.5c0-0.7-0.1-1.2-0.4-1.5s-0.8-0.5-1.4-0.5c-0.7,0-1.5,0.2-2.4,0.7l-0.4-1c0.4-0.2,0.9-0.4,1.4-0.5
		s1-0.2,1.5-0.2c1,0,1.8,0.2,2.3,0.7s0.7,1.2,0.7,2.2v5.8H365V78.1z M362.1,77.2c0.8,0,1.4-0.2,1.9-0.7c0.5-0.4,0.7-1.1,0.7-1.9
		v-0.8l-1.3,0.1c-1,0-1.8,0.2-2.2,0.5c-0.5,0.3-0.7,0.7-0.7,1.3c0,0.5,0.1,0.8,0.4,1.1C361.2,77.1,361.6,77.2,362.1,77.2z"/>
	<path d="M369.9,73.7c0.2-0.3,0.6-0.7,1-1.2l2.8-2.9h1.5l-3.5,3.6l3.7,4.9h-1.6l-3-4l-1,0.8v3.2h-1.3V65.9h1.3v6.4
		C369.9,72.7,369.9,73.1,369.9,73.7L369.9,73.7z"/>
	<path d="M380.7,78.2c-1.3,0-2.3-0.4-3-1.2s-1.1-1.8-1.1-3.2s0.3-2.5,1-3.3s1.6-1.2,2.7-1.2s1.9,0.4,2.5,1.1s0.9,1.6,0.9,2.8V74
		h-5.9c0,1,0.3,1.8,0.8,2.3s1.2,0.8,2,0.8c0.9,0,1.8-0.2,2.7-0.6v1.2c-0.5,0.2-0.9,0.3-1.3,0.4C381.8,78.2,381.3,78.2,380.7,78.2z
		 M380.3,70.5c-0.7,0-1.2,0.2-1.6,0.7c-0.4,0.4-0.6,1.1-0.7,1.9h4.5c0-0.8-0.2-1.4-0.5-1.9C381.5,70.7,381,70.5,380.3,70.5z"/>
	<path d="M343.3,91.5c0,1.9-0.5,3.3-1.5,4.3s-2.5,1.5-4.4,1.5h-3.2V85.9h3.5c1.8,0,3.2,0.5,4.1,1.5S343.3,89.7,343.3,91.5z
		 M341.9,91.5c0-1.5-0.4-2.6-1.1-3.4c-0.7-0.8-1.9-1.1-3.3-1.1h-1.9v9.1h1.6c1.6,0,2.8-0.4,3.6-1.2C341.5,94.2,341.9,93,341.9,91.5z
		"/>
	<path d="M349.2,97.4c-1.3,0-2.3-0.4-3-1.2s-1.1-1.8-1.1-3.2s0.3-2.5,1-3.3s1.6-1.2,2.7-1.2s1.9,0.4,2.5,1.1
		c0.6,0.7,0.9,1.6,0.9,2.8v0.8h-5.9c0,1,0.3,1.8,0.8,2.3s1.2,0.8,2,0.8c0.9,0,1.8-0.2,2.7-0.6v1.2c-0.5,0.2-0.9,0.3-1.3,0.4
		C350.3,97.4,349.8,97.4,349.2,97.4z M348.9,89.7c-0.7,0-1.2,0.2-1.6,0.7c-0.4,0.4-0.6,1.1-0.7,1.9h4.5c0-0.8-0.2-1.4-0.5-1.9
		C350.1,89.9,349.6,89.7,348.9,89.7z"/>
	<path d="M358,97.4c-1.2,0-2.2-0.4-2.9-1.1c-0.7-0.8-1-1.8-1-3.2s0.3-2.5,1-3.3s1.7-1.2,2.9-1.2c0.4,0,0.8,0,1.2,0.1
		c0.4,0.1,0.7,0.2,1,0.3l-0.4,1.1c-0.3-0.1-0.6-0.2-0.9-0.3s-0.6-0.1-0.9-0.1c-1.7,0-2.6,1.1-2.6,3.3c0,1.1,0.2,1.9,0.6,2.4
		c0.4,0.6,1.1,0.8,1.9,0.8c0.7,0,1.4-0.2,2.2-0.5v1.1C359.6,97.3,358.9,97.4,358,97.4z"/>
	<path d="M362.1,86.4c0-0.3,0.1-0.5,0.2-0.7c0.1-0.1,0.3-0.2,0.5-0.2s0.4,0.1,0.5,0.2c0.2,0.1,0.2,0.4,0.2,0.6
		c0,0.3-0.1,0.5-0.2,0.7c-0.2,0.1-0.3,0.2-0.5,0.2s-0.4-0.1-0.5-0.2C362.2,86.9,362.1,86.7,362.1,86.4z M363.5,97.3h-1.3v-8.6h1.3
		V97.3z"/>
	<path d="M371.8,95c0,0.8-0.3,1.4-0.9,1.8c-0.6,0.4-1.4,0.6-2.5,0.6s-2-0.2-2.7-0.5v-1.2c0.4,0.2,0.9,0.4,1.3,0.5
		c0.5,0.1,0.9,0.2,1.4,0.2c0.7,0,1.2-0.1,1.6-0.3s0.5-0.5,0.5-1c0-0.3-0.1-0.6-0.4-0.9c-0.3-0.2-0.9-0.5-1.7-0.8
		c-0.8-0.3-1.4-0.6-1.7-0.8c-0.3-0.2-0.6-0.5-0.8-0.8s-0.2-0.6-0.2-1c0-0.7,0.3-1.2,0.9-1.7c0.6-0.4,1.3-0.6,2.3-0.6
		c0.9,0,1.8,0.2,2.7,0.6l-0.5,1.1c-0.9-0.4-1.6-0.5-2.3-0.5c-0.6,0-1.1,0.1-1.4,0.3s-0.5,0.5-0.5,0.8c0,0.2,0.1,0.4,0.2,0.6
		c0.1,0.2,0.3,0.3,0.6,0.5c0.3,0.1,0.8,0.4,1.5,0.6c1,0.4,1.7,0.7,2.1,1.1C371.6,93.9,371.8,94.4,371.8,95z"/>
	<path d="M373.8,86.4c0-0.3,0.1-0.5,0.2-0.7c0.1-0.1,0.3-0.2,0.5-0.2s0.4,0.1,0.5,0.2c0.2,0.1,0.2,0.4,0.2,0.6
		c0,0.3-0.1,0.5-0.2,0.7c-0.2,0.1-0.3,0.2-0.5,0.2s-0.4-0.1-0.5-0.2C373.8,86.9,373.8,86.7,373.8,86.4z M375.2,97.3h-1.3v-8.6h1.3
		V97.3z"/>
	<path d="M385.3,93c0,1.4-0.4,2.5-1.1,3.3s-1.7,1.2-2.9,1.2c-0.8,0-1.4-0.2-2-0.5s-1.1-0.9-1.4-1.5c-0.3-0.7-0.5-1.5-0.5-2.4
		c0-1.4,0.3-2.5,1-3.3s1.7-1.2,2.9-1.2c1.2,0,2.1,0.4,2.9,1.2C385,90.6,385.3,91.6,385.3,93z M378.8,93c0,1.1,0.2,1.9,0.7,2.5
		c0.4,0.6,1.1,0.9,1.9,0.9s1.5-0.3,1.9-0.9c0.4-0.6,0.7-1.4,0.7-2.5s-0.2-1.9-0.7-2.5c-0.4-0.6-1.1-0.8-1.9-0.8s-1.5,0.3-1.9,0.8
		C379,91.1,378.8,91.9,378.8,93z"/>
	<path d="M393.5,97.3v-5.5c0-0.7-0.2-1.2-0.5-1.6c-0.3-0.3-0.8-0.5-1.5-0.5c-0.9,0-1.6,0.2-2,0.7s-0.6,1.3-0.6,2.4v4.5h-1.3v-8.6
		h1.1l0.2,1.2h0.1c0.3-0.4,0.6-0.7,1.1-1c0.5-0.2,1-0.3,1.6-0.3c1,0,1.8,0.2,2.3,0.7s0.8,1.3,0.8,2.4v5.6L393.5,97.3L393.5,97.3z"/>
</g>
<g>
	<path d="M621.4,67.7c-1.3,0-2.2,0.4-3,1.3s-1.1,2-1.1,3.4c0,1.5,0.3,2.6,1.1,3.5c0.7,0.8,1.7,1.2,3,1.2c0.8,0,1.7-0.1,2.7-0.4v1.2
		c-0.8,0.3-1.8,0.4-2.9,0.4c-1.7,0-3-0.5-3.9-1.5s-1.4-2.5-1.4-4.4c0-1.2,0.2-2.2,0.7-3.1c0.4-0.9,1.1-1.6,1.9-2
		c0.8-0.5,1.8-0.7,2.9-0.7c1.2,0,2.2,0.2,3.1,0.7l-0.6,1.1C623.1,67.9,622.3,67.7,621.4,67.7z"/>
	<path d="M633.8,73.8c0,1.4-0.4,2.5-1.1,3.3c-0.7,0.8-1.7,1.2-2.9,1.2c-0.8,0-1.4-0.2-2-0.5s-1.1-0.9-1.4-1.5
		c-0.3-0.7-0.5-1.5-0.5-2.4c0-1.4,0.3-2.5,1-3.3s1.7-1.2,2.9-1.2s2.1,0.4,2.9,1.2C633.5,71.4,633.8,72.4,633.8,73.8z M627.3,73.8
		c0,1.1,0.2,1.9,0.7,2.5c0.4,0.6,1.1,0.9,1.9,0.9c0.8,0,1.5-0.3,1.9-0.9c0.4-0.6,0.7-1.4,0.7-2.5s-0.2-1.9-0.7-2.5
		c-0.4-0.6-1.1-0.8-1.9-0.8c-0.8,0-1.5,0.3-1.9,0.8C627.5,71.9,627.3,72.7,627.3,73.8z"/>
	<path d="M647,78.1v-5.6c0-0.7-0.1-1.2-0.4-1.5c-0.3-0.3-0.7-0.5-1.4-0.5c-0.8,0-1.4,0.2-1.8,0.7c-0.4,0.5-0.6,1.2-0.6,2.1v4.8h-1.3
		v-5.6c0-0.7-0.1-1.2-0.4-1.5c-0.3-0.3-0.7-0.5-1.4-0.5c-0.8,0-1.4,0.2-1.8,0.7c-0.4,0.5-0.6,1.3-0.6,2.4v4.5H636v-8.6h1.1l0.2,1.2
		h0.1c0.2-0.4,0.6-0.7,1-1s0.9-0.4,1.5-0.4c1.3,0,2.2,0.5,2.6,1.5h0.1c0.3-0.4,0.6-0.8,1.1-1.1c0.5-0.3,1-0.4,1.7-0.4
		c1,0,1.7,0.2,2.2,0.7s0.7,1.3,0.7,2.4V78H647V78.1z"/>
	<path d="M655,78.2c-0.6,0-1.1-0.1-1.5-0.3s-0.8-0.5-1.2-0.9h-0.1c0.1,0.5,0.1,1,0.1,1.4v3.5H651V69.5h1.1l0.2,1.2h0.1
		c0.3-0.5,0.7-0.8,1.2-1c0.4-0.2,1-0.3,1.5-0.3c1.1,0,2,0.4,2.6,1.2c0.6,0.8,0.9,1.9,0.9,3.3s-0.3,2.5-0.9,3.3
		C656.9,77.9,656.1,78.2,655,78.2z M654.8,70.5c-0.9,0-1.5,0.2-1.9,0.7s-0.6,1.3-0.6,2.3v0.3c0,1.2,0.2,2.1,0.6,2.6
		c0.4,0.5,1,0.8,1.9,0.8c0.7,0,1.3-0.3,1.7-0.9c0.4-0.6,0.6-1.4,0.6-2.5s-0.2-1.9-0.6-2.5C656.1,70.8,655.5,70.5,654.8,70.5z"/>
	<path d="M662.1,78.1h-1.3V65.9h1.3V78.1z"/>
	<path d="M668.4,78.2c-1.3,0-2.3-0.4-3-1.2s-1.1-1.8-1.1-3.2s0.3-2.5,1-3.3s1.6-1.2,2.7-1.2c1.1,0,1.9,0.4,2.5,1.1s0.9,1.6,0.9,2.8
		V74h-5.9c0,1,0.3,1.8,0.8,2.3s1.2,0.8,2,0.8c0.9,0,1.8-0.2,2.7-0.6v1.2c-0.5,0.2-0.9,0.3-1.3,0.4C669.5,78.2,669,78.2,668.4,78.2z
		 M668.1,70.5c-0.7,0-1.2,0.2-1.6,0.7c-0.4,0.4-0.7,1.1-0.7,1.9h4.5c0-0.8-0.2-1.4-0.5-1.9C669.3,70.7,668.8,70.5,668.1,70.5z"/>
	<path d="M676.6,77.2c0.2,0,0.5,0,0.7-0.1c0.2,0,0.4-0.1,0.5-0.1v1c-0.1,0.1-0.3,0.1-0.6,0.2c-0.3,0-0.5,0.1-0.7,0.1
		c-1.7,0-2.5-0.9-2.5-2.6v-5.1h-1.2V70l1.2-0.5l0.5-1.8h0.8v2h2.5v1h-2.5v5c0,0.5,0.1,0.9,0.4,1.2C675.8,77,676.1,77.2,676.6,77.2z"
		/>
	<path d="M683.1,78.2c-1.3,0-2.3-0.4-3-1.2s-1.1-1.8-1.1-3.2s0.3-2.5,1-3.3s1.6-1.2,2.7-1.2c1.1,0,1.9,0.4,2.5,1.1s0.9,1.6,0.9,2.8
		V74h-5.9c0,1,0.3,1.8,0.8,2.3s1.2,0.8,2,0.8c0.9,0,1.8-0.2,2.7-0.6v1.2c-0.5,0.2-0.9,0.3-1.3,0.4C684.1,78.2,683.6,78.2,683.1,78.2
		z M682.7,70.5c-0.7,0-1.2,0.2-1.6,0.7c-0.4,0.4-0.7,1.1-0.7,1.9h4.5c0-0.8-0.2-1.4-0.5-1.9C683.9,70.7,683.4,70.5,682.7,70.5z"/>
	<path d="M639.2,97.3h-1.3V87h-3.6v-1.2h8.6V87h-3.6v10.3H639.2z"/>
	<path d="M649.6,97.3l-0.3-1.2h-0.1c-0.4,0.5-0.9,0.9-1.3,1.1c-0.4,0.2-1,0.3-1.6,0.3c-0.8,0-1.5-0.2-2-0.7
		c-0.5-0.4-0.7-1.1-0.7-1.9c0-1.7,1.4-2.6,4.1-2.7h1.5v-0.5c0-0.7-0.1-1.2-0.4-1.5s-0.8-0.5-1.4-0.5c-0.7,0-1.5,0.2-2.4,0.7l-0.4-1
		c0.4-0.2,0.9-0.4,1.4-0.5s1-0.2,1.5-0.2c1,0,1.8,0.2,2.3,0.7s0.7,1.2,0.7,2.2v5.8h-0.9V97.3z M646.7,96.4c0.8,0,1.4-0.2,1.9-0.7
		c0.5-0.4,0.7-1.1,0.7-1.9V93l-1.3,0.1c-1,0-1.8,0.2-2.2,0.5c-0.5,0.3-0.7,0.7-0.7,1.3c0,0.5,0.1,0.8,0.4,1.1
		C645.8,96.3,646.2,96.4,646.7,96.4z"/>
	<path d="M658.8,95c0,0.8-0.3,1.4-0.9,1.8c-0.6,0.4-1.4,0.6-2.5,0.6s-2-0.2-2.7-0.5v-1.2c0.4,0.2,0.9,0.4,1.3,0.5
		c0.5,0.1,0.9,0.2,1.4,0.2c0.7,0,1.2-0.1,1.6-0.3c0.4-0.2,0.5-0.5,0.5-1c0-0.3-0.1-0.6-0.4-0.9c-0.3-0.2-0.9-0.5-1.7-0.8
		s-1.4-0.6-1.7-0.8s-0.6-0.5-0.8-0.8s-0.2-0.6-0.2-1c0-0.7,0.3-1.2,0.9-1.7c0.6-0.4,1.3-0.6,2.3-0.6c0.9,0,1.8,0.2,2.7,0.6l-0.5,1.1
		c-0.9-0.4-1.6-0.5-2.3-0.5c-0.6,0-1.1,0.1-1.4,0.3c-0.3,0.2-0.5,0.5-0.5,0.8c0,0.2,0.1,0.4,0.2,0.6c0.1,0.2,0.3,0.3,0.6,0.5
		c0.3,0.1,0.8,0.4,1.5,0.6c1,0.4,1.7,0.7,2.1,1.1C658.6,93.9,658.8,94.4,658.8,95z"/>
	<path d="M662.1,92.9c0.2-0.3,0.6-0.7,1-1.2l2.8-2.9h1.5l-3.5,3.6l3.7,4.9H666l-3-4l-1,0.8v3.2h-1.3V85.1h1.3v6.4
		C662.1,91.9,662.1,92.3,662.1,92.9L662.1,92.9z"/>
</g>
<g>
	<path d="M501.8,7.7v7.4c0,1.3-0.4,2.3-1.2,3.1c-0.8,0.7-1.9,1.1-3.2,1.1s-2.4-0.4-3.2-1.1c-0.8-0.8-1.1-1.8-1.1-3.1V7.7h1.3v7.5
		c0,1,0.3,1.7,0.8,2.2s1.3,0.8,2.3,0.8s1.7-0.3,2.2-0.8s0.8-1.2,0.8-2.2V7.8L501.8,7.7L501.8,7.7z"/>
	<path d="M510.2,16.8c0,0.8-0.3,1.4-0.9,1.8c-0.6,0.4-1.4,0.6-2.5,0.6s-2-0.2-2.7-0.5v-1.2c0.4,0.2,0.9,0.4,1.3,0.5
		c0.5,0.1,0.9,0.2,1.4,0.2c0.7,0,1.2-0.1,1.6-0.3c0.4-0.2,0.5-0.5,0.5-1c0-0.3-0.1-0.6-0.4-0.9c-0.3-0.2-0.9-0.5-1.7-0.8
		s-1.4-0.6-1.7-0.8c-0.3-0.2-0.6-0.5-0.8-0.8s-0.2-0.6-0.2-1c0-0.7,0.3-1.2,0.9-1.7c0.6-0.4,1.3-0.6,2.3-0.6c0.9,0,1.8,0.2,2.7,0.6
		l-0.5,1.1c-0.9-0.4-1.6-0.5-2.3-0.5c-0.6,0-1.1,0.1-1.4,0.3c-0.3,0.2-0.5,0.5-0.5,0.8c0,0.2,0.1,0.4,0.2,0.6
		c0.1,0.2,0.3,0.3,0.6,0.5c0.3,0.1,0.8,0.4,1.5,0.6c1,0.4,1.7,0.7,2.1,1.1C510,15.7,510.2,16.2,510.2,16.8z"/>
	<path d="M515.9,19.2c-1.3,0-2.3-0.4-3-1.2c-0.7-0.8-1.1-1.8-1.1-3.2c0-1.4,0.3-2.5,1-3.3s1.6-1.2,2.7-1.2c1.1,0,1.9,0.4,2.5,1.1
		s0.9,1.6,0.9,2.8V15H513c0,1,0.3,1.8,0.8,2.3s1.2,0.8,2,0.8c0.9,0,1.8-0.2,2.7-0.6v1.2c-0.5,0.2-0.9,0.3-1.3,0.4
		C517,19.2,516.5,19.2,515.9,19.2z M515.5,11.5c-0.7,0-1.2,0.2-1.6,0.7c-0.4,0.4-0.7,1.1-0.7,1.9h4.5c0-0.8-0.2-1.4-0.5-1.9
		C516.7,11.7,516.2,11.5,515.5,11.5z"/>
	<path d="M525.1,10.4c0.4,0,0.7,0,1,0.1l-0.2,1.2c-0.4-0.1-0.7-0.1-0.9-0.1c-0.7,0-1.3,0.3-1.8,0.8s-0.7,1.3-0.7,2.1v4.6h-1.3v-8.6
		h1.1l0.1,1.6h0.1c0.3-0.6,0.7-1,1.1-1.3C524.1,10.5,524.6,10.4,525.1,10.4z"/>
	<path d="M490.9,38.3l-1.4-3.6h-4.6l-1.4,3.6h-1.3l4.5-11.5h1.1l4.5,11.5H490.9z M489,33.5l-1.3-3.5c-0.2-0.4-0.3-1-0.5-1.6
		c-0.1,0.5-0.3,1-0.5,1.6l-1.3,3.5H489z"/>
	<path d="M497,38.4c-1.2,0-2.2-0.4-2.9-1.1c-0.7-0.8-1-1.8-1-3.2c0-1.4,0.3-2.5,1-3.3s1.7-1.2,2.9-1.2c0.4,0,0.8,0,1.2,0.1
		s0.7,0.2,1,0.3l-0.4,1.1c-0.3-0.1-0.6-0.2-0.9-0.3c-0.3-0.1-0.6-0.1-0.9-0.1c-1.7,0-2.6,1.1-2.6,3.3c0,1.1,0.2,1.9,0.6,2.4
		c0.4,0.6,1.1,0.8,1.9,0.8c0.7,0,1.4-0.2,2.2-0.5V38C498.6,38.3,497.9,38.4,497,38.4z"/>
	<path d="M504,37.4c0.2,0,0.5,0,0.7-0.1c0.2,0,0.4-0.1,0.5-0.1v1c-0.1,0.1-0.3,0.1-0.6,0.2c-0.3,0-0.5,0.1-0.7,0.1
		c-1.7,0-2.5-0.9-2.5-2.6v-5.1h-1.2v-0.6l1.2-0.5l0.5-1.8h0.8v2h2.5v1h-2.5v5c0,0.5,0.1,0.9,0.4,1.2C503.2,37.2,503.6,37.4,504,37.4
		z"/>
	<path d="M506.8,27.4c0-0.3,0.1-0.5,0.2-0.7c0.1-0.1,0.3-0.2,0.5-0.2s0.4,0.1,0.5,0.2c0.2,0.1,0.2,0.4,0.2,0.6
		c0,0.3-0.1,0.5-0.2,0.7c-0.2,0.1-0.3,0.2-0.5,0.2s-0.4-0.1-0.5-0.2C506.8,27.9,506.8,27.7,506.8,27.4z M508.2,38.3h-1.3v-8.6h1.3
		V38.3z"/>
	<path d="M518.3,34c0,1.4-0.4,2.5-1.1,3.3c-0.7,0.8-1.7,1.2-2.9,1.2c-0.8,0-1.4-0.2-2-0.5s-1.1-0.9-1.4-1.5
		c-0.3-0.7-0.5-1.5-0.5-2.4c0-1.4,0.3-2.5,1-3.3s1.7-1.2,2.9-1.2s2.1,0.4,2.9,1.2C518,31.6,518.3,32.6,518.3,34z M511.8,34
		c0,1.1,0.2,1.9,0.7,2.5c0.4,0.6,1.1,0.9,1.9,0.9c0.8,0,1.5-0.3,1.9-0.9s0.7-1.4,0.7-2.5s-0.2-1.9-0.7-2.5c-0.4-0.6-1.1-0.8-1.9-0.8
		c-0.8,0-1.5,0.3-1.9,0.8C512,32.1,511.8,32.9,511.8,34z"/>
	<path d="M526.4,38.3v-5.5c0-0.7-0.2-1.2-0.5-1.6c-0.3-0.3-0.8-0.5-1.5-0.5c-0.9,0-1.6,0.2-2,0.7s-0.6,1.3-0.6,2.4v4.5h-1.3v-8.6
		h1.1l0.2,1.2h0.1c0.3-0.4,0.6-0.7,1.1-1c0.5-0.2,1-0.3,1.6-0.3c1,0,1.8,0.2,2.3,0.7s0.8,1.3,0.8,2.4v5.6
		C527.7,38.3,526.4,38.3,526.4,38.3z"/>
	<path d="M531.3,35.1v-0.4c0-0.6,0.1-1.1,0.3-1.5s0.5-0.8,1-1.2c0.7-0.6,1.2-1,1.3-1.4c0.2-0.3,0.3-0.7,0.3-1.1
		c0-0.5-0.2-0.9-0.5-1.2c-0.3-0.3-0.8-0.4-1.5-0.4c-0.4,0-0.8,0-1.2,0.1s-0.8,0.3-1.3,0.5l-0.5-1.1c1-0.5,2-0.8,3.1-0.8
		c1,0,1.8,0.2,2.3,0.7c0.6,0.5,0.8,1.2,0.8,2.1c0,0.4-0.1,0.7-0.2,1s-0.3,0.6-0.4,0.8c-0.2,0.3-0.6,0.7-1.3,1.2
		c-0.5,0.4-0.9,0.8-1,1.1c-0.2,0.3-0.3,0.7-0.3,1.2V35h-0.9V35.1z M530.9,37.5c0-0.7,0.3-1.1,0.9-1.1c0.3,0,0.5,0.1,0.7,0.3
		c0.2,0.2,0.2,0.4,0.2,0.8c0,0.3-0.1,0.6-0.2,0.8c-0.2,0.2-0.4,0.3-0.7,0.3s-0.5-0.1-0.7-0.2C531,38.1,530.9,37.8,530.9,37.5z"/>
</g>
<g>
	<path d="M544.7,60.4l3-5.7h1.4l-3.8,7v4.4H544v-4.4l-3.8-7.1h1.5L544.7,60.4z"/>
	<path d="M554.2,66.2c-1.3,0-2.3-0.4-3-1.2c-0.7-0.8-1.1-1.8-1.1-3.2c0-1.4,0.3-2.5,1-3.3s1.6-1.2,2.7-1.2c1.1,0,1.9,0.4,2.5,1.1
		s0.9,1.6,0.9,2.8V62h-5.9c0,1,0.3,1.8,0.8,2.3s1.2,0.8,2,0.8c0.9,0,1.8-0.2,2.7-0.6v1.2c-0.5,0.2-0.9,0.3-1.3,0.4
		C555.2,66.2,554.7,66.2,554.2,66.2z M553.8,58.5c-0.7,0-1.2,0.2-1.6,0.7c-0.4,0.4-0.7,1.1-0.7,1.9h4.5c0-0.8-0.2-1.4-0.5-1.9
		C555,58.7,554.5,58.5,553.8,58.5z"/>
	<path d="M565.1,63.8c0,0.8-0.3,1.4-0.9,1.8c-0.6,0.4-1.4,0.6-2.5,0.6s-2-0.2-2.7-0.5v-1.2c0.4,0.2,0.9,0.4,1.3,0.5
		c0.5,0.1,0.9,0.2,1.4,0.2c0.7,0,1.2-0.1,1.6-0.3c0.4-0.2,0.5-0.5,0.5-1c0-0.3-0.1-0.6-0.4-0.9c-0.3-0.2-0.9-0.5-1.7-0.8
		s-1.4-0.6-1.7-0.8c-0.3-0.2-0.6-0.5-0.8-0.8s-0.2-0.6-0.2-1c0-0.7,0.3-1.2,0.9-1.7c0.6-0.4,1.3-0.6,2.3-0.6c0.9,0,1.8,0.2,2.7,0.6
		l-0.5,1.1c-0.9-0.4-1.6-0.5-2.3-0.5c-0.6,0-1.1,0.1-1.4,0.3c-0.3,0.2-0.5,0.5-0.5,0.8c0,0.2,0.1,0.4,0.2,0.6
		c0.1,0.2,0.3,0.3,0.6,0.5c0.3,0.1,0.8,0.4,1.5,0.6c1,0.4,1.7,0.7,2.1,1.1C564.9,62.7,565.1,63.2,565.1,63.8z"/>
</g>
<g>
	<path d="M552.6,203.1h-1.5l-6.2-9.6h-0.1c0.1,1.1,0.1,2.2,0.1,3.1v6.5h-1.2v-11.4h1.5l6.2,9.5h0.1c0-0.1,0-0.6-0.1-1.4
		c0-0.8,0-1.3,0-1.6v-6.6h1.2V203.1z"/>
	<path d="M563,198.8c0,1.4-0.4,2.5-1.1,3.3c-0.7,0.8-1.7,1.2-2.9,1.2c-0.8,0-1.4-0.2-2-0.5s-1.1-0.9-1.4-1.5
		c-0.3-0.7-0.5-1.5-0.5-2.4c0-1.4,0.3-2.5,1-3.3s1.7-1.2,2.9-1.2s2.1,0.4,2.9,1.2C562.6,196.4,563,197.4,563,198.8z M556.4,198.8
		c0,1.1,0.2,1.9,0.7,2.5c0.4,0.6,1.1,0.9,1.9,0.9c0.8,0,1.5-0.3,1.9-0.9s0.7-1.4,0.7-2.5s-0.2-1.9-0.7-2.5c-0.4-0.6-1.1-0.8-1.9-0.8
		c-0.8,0-1.5,0.3-1.9,0.8C556.7,196.9,556.4,197.7,556.4,198.8z"/>
</g>
<g>
	<path d="M632.2,271h-1.3l-2.3-7.6c-0.1-0.3-0.2-0.8-0.4-1.3s-0.2-0.8-0.2-0.9c-0.1,0.7-0.3,1.4-0.5,2.3l-2.2,7.6H624l-3-11.4h1.4
		l1.8,7.1c0.2,1,0.4,1.9,0.5,2.7c0.1-1,0.3-1.9,0.6-2.8l2-6.9h1.4l2.1,7c0.2,0.8,0.5,1.7,0.6,2.7c0.1-0.7,0.3-1.6,0.6-2.7l1.8-7h1.4
		L632.2,271z"/>
	<path d="M642.1,271l-0.3-1.2h-0.1c-0.4,0.5-0.9,0.9-1.3,1.1s-1,0.3-1.6,0.3c-0.8,0-1.5-0.2-2-0.7s-0.7-1.1-0.7-1.9
		c0-1.7,1.4-2.6,4.1-2.7h1.5v-0.5c0-0.7-0.1-1.2-0.4-1.5s-0.8-0.5-1.4-0.5c-0.7,0-1.5,0.2-2.4,0.7l-0.4-1c0.4-0.2,0.9-0.4,1.4-0.5
		s1-0.2,1.5-0.2c1,0,1.8,0.2,2.3,0.7s0.7,1.2,0.7,2.2v5.8L642.1,271L642.1,271z M639.2,270.1c0.8,0,1.4-0.2,1.9-0.7
		c0.5-0.4,0.7-1.1,0.7-1.9v-0.8l-1.3,0.1c-1,0-1.8,0.2-2.2,0.5c-0.5,0.3-0.7,0.7-0.7,1.3c0,0.5,0.1,0.8,0.4,1.1
		C638.3,270,638.7,270.1,639.2,270.1z"/>
	<path d="M645.6,260.1c0-0.3,0.1-0.5,0.2-0.7c0.1-0.1,0.3-0.2,0.5-0.2s0.4,0.1,0.5,0.2s0.2,0.4,0.2,0.6c0,0.3-0.1,0.5-0.2,0.7
		c-0.2,0.1-0.3,0.2-0.5,0.2s-0.4-0.1-0.5-0.2S645.6,260.4,645.6,260.1z M647,271h-1.3v-8.6h1.3V271z"/>
	<path d="M652.6,270.1c0.2,0,0.5,0,0.7-0.1c0.2,0,0.4-0.1,0.5-0.1v1c-0.1,0.1-0.3,0.1-0.6,0.2c-0.3,0-0.5,0.1-0.7,0.1
		c-1.7,0-2.5-0.9-2.5-2.6v-5.1h-1.2v-0.6l1.2-0.5l0.5-1.8h0.8v2h2.5v1h-2.5v5c0,0.5,0.1,0.9,0.4,1.2
		C651.8,269.9,652.1,270.1,652.6,270.1z"/>
	<path d="M663.5,263.4h-2.2v7.6H660v-7.6h-1.5v-0.6l1.5-0.5v-0.5c0-2.1,0.9-3.2,2.8-3.2c0.5,0,1,0.1,1.6,0.3l-0.3,1
		c-0.5-0.2-0.9-0.2-1.3-0.2c-0.5,0-0.9,0.2-1.1,0.5c-0.2,0.3-0.4,0.8-0.4,1.6v0.6h2.2V263.4z"/>
	<path d="M672.4,266.7c0,1.4-0.4,2.5-1.1,3.3c-0.7,0.8-1.7,1.2-2.9,1.2c-0.8,0-1.4-0.2-2-0.5s-1.1-0.9-1.4-1.5s-0.5-1.5-0.5-2.4
		c0-1.4,0.3-2.5,1-3.3s1.7-1.2,2.9-1.2s2.1,0.4,2.9,1.2S672.4,265.4,672.4,266.7z M665.9,266.7c0,1.1,0.2,1.9,0.7,2.5
		c0.4,0.6,1.1,0.9,1.9,0.9s1.5-0.3,1.9-0.9s0.7-1.4,0.7-2.5s-0.2-1.9-0.7-2.5c-0.4-0.6-1.1-0.8-1.9-0.8c-0.8,0-1.5,0.3-1.9,0.8
		C666.1,264.8,665.9,265.6,665.9,266.7z"/>
	<path d="M678.6,262.3c0.4,0,0.7,0,1,0.1l-0.2,1.2c-0.4-0.1-0.7-0.1-0.9-0.1c-0.7,0-1.3,0.3-1.8,0.8s-0.7,1.3-0.7,2.1v4.6h-1.3v-8.6
		h1.1l0.1,1.6h0.1c0.3-0.6,0.7-1,1.1-1.3C677.6,262.4,678.1,262.3,678.6,262.3z"/>
	<path d="M624.2,290.2l-3.9-10.1h-0.1c0.1,0.8,0.1,1.8,0.1,2.9v7.3h-1.2v-11.4h2l3.6,9.4h0.1l3.6-9.4h2v11.4h-1.3v-7.4
		c0-0.8,0-1.8,0.1-2.8h-0.1l-3.9,10.1H624.2z"/>
	<path d="M637,290.4c-1.3,0-2.3-0.4-3-1.2c-0.7-0.8-1.1-1.8-1.1-3.2c0-1.4,0.3-2.5,1-3.3s1.6-1.2,2.7-1.2c1.1,0,1.9,0.4,2.5,1.1
		s0.9,1.6,0.9,2.8v0.8h-5.9c0,1,0.3,1.8,0.8,2.3s1.2,0.8,2,0.8c0.9,0,1.8-0.2,2.7-0.6v1.2c-0.5,0.2-0.9,0.3-1.3,0.4
		S637.6,290.4,637,290.4z M636.7,282.6c-0.7,0-1.2,0.2-1.6,0.7c-0.4,0.4-0.6,1.1-0.7,1.9h4.5c0-0.8-0.2-1.4-0.5-1.9
		C637.9,282.8,637.4,282.6,636.7,282.6z"/>
	<path d="M647.9,287.9c0,0.8-0.3,1.4-0.9,1.8c-0.6,0.4-1.4,0.6-2.5,0.6s-2-0.2-2.7-0.5v-1.2c0.4,0.2,0.9,0.4,1.3,0.5
		c0.5,0.1,0.9,0.2,1.4,0.2c0.7,0,1.2-0.1,1.6-0.3c0.4-0.2,0.5-0.5,0.5-1c0-0.3-0.1-0.6-0.4-0.9c-0.3-0.2-0.9-0.5-1.7-0.8
		s-1.4-0.6-1.7-0.8c-0.3-0.2-0.6-0.5-0.8-0.8s-0.2-0.6-0.2-1c0-0.7,0.3-1.2,0.9-1.7c0.6-0.4,1.3-0.6,2.3-0.6c0.9,0,1.8,0.2,2.7,0.6
		l-0.5,1.1c-0.9-0.4-1.6-0.5-2.3-0.5c-0.6,0-1.1,0.1-1.4,0.3c-0.3,0.2-0.5,0.5-0.5,0.8c0,0.2,0.1,0.4,0.2,0.6
		c0.1,0.2,0.3,0.3,0.6,0.5c0.3,0.1,0.8,0.4,1.5,0.6c1,0.4,1.7,0.7,2.1,1.1S647.9,287.3,647.9,287.9z"/>
	<path d="M655.5,287.9c0,0.8-0.3,1.4-0.9,1.8c-0.6,0.4-1.4,0.6-2.5,0.6s-2-0.2-2.7-0.5v-1.2c0.4,0.2,0.9,0.4,1.3,0.5
		c0.5,0.1,0.9,0.2,1.4,0.2c0.7,0,1.2-0.1,1.6-0.3c0.4-0.2,0.5-0.5,0.5-1c0-0.3-0.1-0.6-0.4-0.9c-0.3-0.2-0.9-0.5-1.7-0.8
		s-1.4-0.6-1.7-0.8c-0.3-0.2-0.6-0.5-0.8-0.8s-0.2-0.6-0.2-1c0-0.7,0.3-1.2,0.9-1.7c0.6-0.4,1.3-0.6,2.3-0.6c0.9,0,1.8,0.2,2.7,0.6
		l-0.5,1.1c-0.9-0.4-1.6-0.5-2.3-0.5c-0.6,0-1.1,0.1-1.4,0.3c-0.3,0.2-0.5,0.5-0.5,0.8c0,0.2,0.1,0.4,0.2,0.6
		c0.1,0.2,0.3,0.3,0.6,0.5c0.3,0.1,0.8,0.4,1.5,0.6c1,0.4,1.7,0.7,2.1,1.1S655.5,287.3,655.5,287.9z"/>
	<path d="M662.9,290.2l-0.3-1.2h-0.1c-0.4,0.5-0.9,0.9-1.3,1.1s-1,0.3-1.6,0.3c-0.8,0-1.5-0.2-2-0.7s-0.7-1.1-0.7-1.9
		c0-1.7,1.4-2.6,4.1-2.7h1.5v-0.5c0-0.7-0.1-1.2-0.4-1.5s-0.8-0.5-1.4-0.5c-0.7,0-1.5,0.2-2.4,0.7l-0.4-1c0.4-0.2,0.9-0.4,1.4-0.5
		s1-0.2,1.5-0.2c1,0,1.8,0.2,2.3,0.7s0.7,1.2,0.7,2.2v5.8L662.9,290.2L662.9,290.2z M660,289.3c0.8,0,1.4-0.2,1.9-0.7
		c0.5-0.4,0.7-1.1,0.7-1.9V286l-1.3,0.1c-1,0-1.8,0.2-2.2,0.5c-0.5,0.3-0.7,0.7-0.7,1.3c0,0.5,0.1,0.8,0.4,1.1
		C659.1,289.2,659.5,289.3,660,289.3z"/>
	<path d="M673.6,281.6v0.8l-1.6,0.2c0.1,0.2,0.3,0.4,0.4,0.7c0.1,0.3,0.2,0.6,0.2,1c0,0.8-0.3,1.5-0.9,2s-1.4,0.8-2.4,0.8
		c-0.3,0-0.5,0-0.7-0.1c-0.6,0.3-0.8,0.7-0.8,1.1c0,0.2,0.1,0.4,0.3,0.5s0.5,0.2,1,0.2h1.5c0.9,0,1.6,0.2,2.1,0.6s0.7,1,0.7,1.7
		c0,0.9-0.4,1.7-1.1,2.2c-0.8,0.5-1.9,0.7-3.3,0.7c-1.1,0-2-0.2-2.6-0.6s-0.9-1-0.9-1.8c0-0.5,0.2-1,0.5-1.4s0.8-0.6,1.4-0.8
		c-0.2-0.1-0.4-0.3-0.6-0.5c-0.1-0.2-0.2-0.5-0.2-0.7c0-0.3,0.1-0.6,0.2-0.8s0.4-0.5,0.8-0.7c-0.4-0.2-0.8-0.5-1.1-0.9
		s-0.4-0.9-0.4-1.5c0-0.9,0.3-1.7,0.8-2.2s1.4-0.8,2.4-0.8c0.4,0,0.9,0.1,1.2,0.2L673.6,281.6L673.6,281.6z M666.7,291.6
		c0,0.5,0.2,0.8,0.6,1.1c0.4,0.2,1,0.4,1.7,0.4c1.1,0,1.9-0.2,2.4-0.5s0.8-0.8,0.8-1.3s-0.1-0.8-0.4-1s-0.8-0.3-1.6-0.3h-1.6
		c-0.6,0-1,0.1-1.4,0.4S666.7,291.1,666.7,291.6z M667.4,284.4c0,0.6,0.2,1.1,0.5,1.4s0.8,0.5,1.4,0.5c1.3,0,1.9-0.6,1.9-1.8
		c0-1.3-0.6-1.9-1.9-1.9c-0.6,0-1.1,0.2-1.4,0.5S667.4,283.7,667.4,284.4z"/>
	<path d="M678.9,290.4c-1.3,0-2.3-0.4-3-1.2c-0.7-0.8-1.1-1.8-1.1-3.2c0-1.4,0.3-2.5,1-3.3s1.6-1.2,2.7-1.2c1.1,0,1.9,0.4,2.5,1.1
		s0.9,1.6,0.9,2.8v0.8H676c0,1,0.3,1.8,0.8,2.3s1.2,0.8,2,0.8c0.9,0,1.8-0.2,2.7-0.6v1.2c-0.5,0.2-0.9,0.3-1.3,0.4
		S679.5,290.4,678.9,290.4z M678.6,282.6c-0.7,0-1.2,0.2-1.6,0.7c-0.4,0.4-0.6,1.1-0.7,1.9h4.5c0-0.8-0.2-1.4-0.5-1.9
		C679.8,282.8,679.3,282.6,678.6,282.6z"/>
</g>
<g>
	<path d="M885.3,140H884l-2.3-7.6c-0.1-0.3-0.2-0.8-0.4-1.3c-0.1-0.5-0.2-0.8-0.2-0.9c-0.1,0.7-0.3,1.4-0.5,2.3l-2.2,7.6H877
		l-3-11.4h1.4l1.8,7.1c0.2,1,0.4,1.9,0.5,2.7c0.1-1,0.3-1.9,0.6-2.8l2-6.9h1.4l2.1,7c0.2,0.8,0.5,1.7,0.6,2.7
		c0.1-0.7,0.3-1.6,0.6-2.7l1.8-7h1.4L885.3,140z"/>
	<path d="M897.3,135.7c0,1.4-0.4,2.5-1.1,3.3c-0.7,0.8-1.7,1.2-2.9,1.2c-0.8,0-1.4-0.2-2-0.5s-1.1-0.9-1.4-1.5
		c-0.3-0.7-0.5-1.5-0.5-2.4c0-1.4,0.3-2.5,1-3.3s1.7-1.2,2.9-1.2s2.1,0.4,2.9,1.2C897,133.3,897.3,134.4,897.3,135.7z M890.8,135.7
		c0,1.1,0.2,1.9,0.7,2.5c0.4,0.6,1.1,0.9,1.9,0.9c0.8,0,1.5-0.3,1.9-0.9c0.4-0.6,0.7-1.4,0.7-2.5s-0.2-1.9-0.7-2.5
		c-0.4-0.6-1.1-0.8-1.9-0.8c-0.8,0-1.5,0.3-1.9,0.8C891,133.8,890.8,134.6,890.8,135.7z"/>
	<path d="M903.5,131.3c0.4,0,0.7,0,1,0.1l-0.2,1.2c-0.4-0.1-0.7-0.1-0.9-0.1c-0.7,0-1.3,0.3-1.8,0.8s-0.7,1.3-0.7,2.1v4.6h-1.3v-8.6
		h1.1l0.1,1.6h0.1c0.3-0.6,0.7-1,1.1-1.3C902.5,131.4,903,131.3,903.5,131.3z"/>
	<path d="M907.4,135.6c0.2-0.3,0.6-0.7,1-1.2l2.8-2.9h1.5l-3.5,3.6l3.7,4.9h-1.6l-3-4l-1,0.8v3.2H906v-12.2h1.3v6.4
		C907.4,134.6,907.4,135,907.4,135.6L907.4,135.6z"/>
	<path d="M918.4,132.4h-2.2v7.6h-1.3v-7.6h-1.5v-0.6l1.5-0.5v-0.5c0-2.1,0.9-3.2,2.8-3.2c0.5,0,1,0.1,1.6,0.3l-0.3,1
		c-0.5-0.2-0.9-0.2-1.3-0.2c-0.5,0-0.9,0.2-1.1,0.5c-0.2,0.3-0.4,0.8-0.4,1.6v0.6h2.2V132.4z M921.3,140H920v-12.2h1.3V140z"/>
	<path d="M931.4,135.7c0,1.4-0.4,2.5-1.1,3.3c-0.7,0.8-1.7,1.2-2.9,1.2c-0.8,0-1.4-0.2-2-0.5s-1.1-0.9-1.4-1.5
		c-0.3-0.7-0.5-1.5-0.5-2.4c0-1.4,0.3-2.5,1-3.3s1.7-1.2,2.9-1.2s2.1,0.4,2.9,1.2C931,133.3,931.4,134.4,931.4,135.7z M924.9,135.7
		c0,1.1,0.2,1.9,0.7,2.5c0.4,0.6,1.1,0.9,1.9,0.9c0.8,0,1.5-0.3,1.9-0.9c0.4-0.6,0.7-1.4,0.7-2.5s-0.2-1.9-0.7-2.5
		c-0.4-0.6-1.1-0.8-1.9-0.8c-0.8,0-1.5,0.3-1.9,0.8C925.1,133.8,924.9,134.6,924.9,135.7z"/>
	<path d="M940.7,140l-1.6-5c-0.1-0.3-0.3-1-0.6-2.1h-0.1c-0.2,0.9-0.4,1.6-0.5,2.1l-1.6,5h-1.5l-2.3-8.6h1.4c0.6,2.2,1,3.8,1.3,4.9
		s0.5,1.9,0.5,2.3h0.1c0.1-0.3,0.1-0.7,0.3-1.2c0.1-0.5,0.2-0.8,0.3-1.1l1.6-4.9h1.4l1.5,4.9c0.3,0.9,0.5,1.6,0.6,2.3h0.1
		c0-0.2,0.1-0.5,0.2-0.9c0.1-0.4,0.6-2.5,1.6-6.3h1.3l-2.4,8.6H940.7z"/>
	<path d="M874.8,148.8c-1.3,0-2.2,0.4-3,1.3s-1.1,2-1.1,3.4c0,1.5,0.3,2.6,1.1,3.5c0.7,0.8,1.7,1.2,3,1.2c0.8,0,1.7-0.1,2.7-0.4v1.2
		c-0.8,0.3-1.8,0.4-2.9,0.4c-1.7,0-3-0.5-3.9-1.5s-1.4-2.5-1.4-4.4c0-1.2,0.2-2.2,0.7-3.1c0.4-0.9,1.1-1.6,1.9-2
		c0.8-0.5,1.8-0.7,2.9-0.7c1.2,0,2.2,0.2,3.1,0.7l-0.6,1.1C876.5,149,875.6,148.8,874.8,148.8z"/>
	<path d="M887.2,154.9c0,1.4-0.4,2.5-1.1,3.3c-0.7,0.8-1.7,1.2-2.9,1.2c-0.8,0-1.4-0.2-2-0.5s-1.1-0.9-1.4-1.5
		c-0.3-0.7-0.5-1.5-0.5-2.4c0-1.4,0.3-2.5,1-3.3s1.7-1.2,2.9-1.2s2.1,0.4,2.9,1.2C886.8,152.5,887.2,153.6,887.2,154.9z
		 M880.6,154.9c0,1.1,0.2,1.9,0.7,2.5c0.4,0.6,1.1,0.9,1.9,0.9c0.8,0,1.5-0.3,1.9-0.9c0.4-0.6,0.7-1.4,0.7-2.5s-0.2-1.9-0.7-2.5
		c-0.4-0.6-1.1-0.8-1.9-0.8c-0.8,0-1.5,0.3-1.9,0.8C880.9,153,880.6,153.8,880.6,154.9z"/>
	<path d="M900.4,159.2v-5.6c0-0.7-0.1-1.2-0.4-1.5c-0.3-0.3-0.7-0.5-1.4-0.5c-0.8,0-1.4,0.2-1.8,0.7c-0.4,0.5-0.6,1.2-0.6,2.1v4.8
		h-1.3v-5.6c0-0.7-0.1-1.2-0.4-1.5c-0.3-0.3-0.7-0.5-1.4-0.5c-0.8,0-1.4,0.2-1.8,0.7c-0.4,0.5-0.6,1.3-0.6,2.4v4.5h-1.3v-8.6h1.1
		l0.2,1.2h0.1c0.2-0.4,0.6-0.7,1-1s0.9-0.4,1.5-0.4c1.3,0,2.2,0.5,2.6,1.5h0.1c0.3-0.4,0.6-0.8,1.1-1.1s1-0.4,1.7-0.4
		c1,0,1.7,0.2,2.2,0.7s0.7,1.3,0.7,2.4v5.6h-1.3V159.2z"/>
	<path d="M908.3,159.4c-0.6,0-1.1-0.1-1.5-0.3s-0.8-0.5-1.2-0.9h-0.1c0.1,0.5,0.1,1,0.1,1.4v3.5h-1.3v-12.4h1.1l0.2,1.2h0.1
		c0.3-0.5,0.7-0.8,1.2-1c0.4-0.2,1-0.3,1.5-0.3c1.1,0,2,0.4,2.6,1.2s0.9,1.9,0.9,3.3c0,1.4-0.3,2.5-0.9,3.3
		C910.3,159,909.4,159.4,908.3,159.4z M908.1,151.6c-0.9,0-1.5,0.2-1.9,0.7s-0.6,1.3-0.6,2.3v0.3c0,1.2,0.2,2.1,0.6,2.6
		c0.4,0.5,1,0.8,1.9,0.8c0.7,0,1.3-0.3,1.7-0.9c0.4-0.6,0.6-1.4,0.6-2.5s-0.2-1.9-0.6-2.5C909.5,151.9,908.9,151.6,908.1,151.6z"/>
	<path d="M915.4,159.2h-1.3V147h1.3V159.2z"/>
	<path d="M921.8,159.4c-1.3,0-2.3-0.4-3-1.2s-1.1-1.8-1.1-3.2s0.3-2.5,1-3.3s1.6-1.2,2.7-1.2c1.1,0,1.9,0.4,2.5,1.1
		c0.6,0.7,0.9,1.6,0.9,2.8v0.8H919c0,1,0.3,1.8,0.8,2.3s1.2,0.8,2,0.8c0.9,0,1.8-0.2,2.7-0.6v1.2c-0.5,0.2-0.9,0.3-1.3,0.4
		C922.9,159.3,922.4,159.4,921.8,159.4z M921.4,151.6c-0.7,0-1.2,0.2-1.6,0.7c-0.4,0.4-0.7,1.1-0.7,1.9h4.5c0-0.8-0.2-1.4-0.5-1.9
		C922.6,151.8,922.1,151.6,921.4,151.6z"/>
	<path d="M929.9,158.3c0.2,0,0.5,0,0.7-0.1c0.2,0,0.4-0.1,0.5-0.1v1c-0.1,0.1-0.3,0.1-0.6,0.2c-0.3,0-0.5,0.1-0.7,0.1
		c-1.7,0-2.5-0.9-2.5-2.6v-5.1H926V151l1.2-0.5l0.5-1.8h0.8v2h2.5v1h-2.5v5c0,0.5,0.1,0.9,0.4,1.2
		C929.2,158.1,929.5,158.3,929.9,158.3z"/>
	<path d="M936.4,159.4c-1.3,0-2.3-0.4-3-1.2s-1.1-1.8-1.1-3.2s0.3-2.5,1-3.3s1.6-1.2,2.7-1.2c1.1,0,1.9,0.4,2.5,1.1
		c0.6,0.7,0.9,1.6,0.9,2.8v0.8h-5.9c0,1,0.3,1.8,0.8,2.3s1.2,0.8,2,0.8c0.9,0,1.8-0.2,2.7-0.6v1.2c-0.5,0.2-0.9,0.3-1.3,0.4
		C937.5,159.3,937,159.4,936.4,159.4z M936.1,151.6c-0.7,0-1.2,0.2-1.6,0.7c-0.4,0.4-0.7,1.1-0.7,1.9h4.5c0-0.8-0.2-1.4-0.5-1.9
		C937.3,151.8,936.7,151.6,936.1,151.6z"/>
	<path d="M947.6,158.1L947.6,158.1c-0.7,0.9-1.6,1.3-2.8,1.3c-1.1,0-2-0.4-2.6-1.1c-0.6-0.8-0.9-1.9-0.9-3.3c0-1.4,0.3-2.5,0.9-3.3
		s1.5-1.2,2.6-1.2c1.2,0,2.1,0.4,2.7,1.3h0.1l-0.1-0.6v-0.6V147h1.3v12.2h-1.1L947.6,158.1z M945,158.3c0.9,0,1.5-0.2,1.9-0.7
		s0.6-1.3,0.6-2.3V155c0-1.2-0.2-2.1-0.6-2.6c-0.4-0.5-1-0.8-1.9-0.8c-0.8,0-1.3,0.3-1.7,0.9c-0.4,0.6-0.6,1.4-0.6,2.5
		s0.2,1.9,0.6,2.5C943.6,158,944.2,158.3,945,158.3z"/>
</g>
<g>
	<g>
		<line class="st4" x1="72.6" y1="83" x2="110" y2="83"/>
		<g>
			<polygon class="st3" points="108,89.7 119.6,83 108,76.3 			"/>
		</g>
	</g>
</g>
<path class="st4" d="M236.3,135h-102c-8.3,0-15-6.7-15-15V46c0-8.3,6.7-15,15-15h102c8.3,0,15,6.7,15,15v74
	C251.3,128.3,244.6,135,236.3,135z"/>
<g>
	<g>
		<line class="st4" x1="251.6" y1="83" x2="289" y2="83"/>
		<g>
			<polygon class="st3" points="287,89.7 298.6,83 287,76.3 			"/>
		</g>
	</g>
</g>
<g>
	<g>
		<line class="st4" x1="430.6" y1="83" x2="468" y2="83"/>
		<g>
			<polygon class="st3" points="466,89.7 477.6,83 466,76.3 			"/>
		</g>
	</g>
</g>
<g>
	<g>
		<line class="st4" x1="826.6" y1="83" x2="864" y2="83"/>
		<g>
			<polygon class="st3" points="862,89.7 873.6,83 862,76.3 			"/>
		</g>
	</g>
</g>
<g>
	<g>
		<line class="st4" x1="538.6" y1="83" x2="576" y2="83"/>
		<g>
			<polygon class="st3" points="574,89.7 585.6,83 574,76.3 			"/>
		</g>
	</g>
</g>
<g>
	<g>
		<polyline class="st4" points="605.3,213 508.6,213 508.6,113 		"/>
		<g>
			<polygon class="st3" points="603.3,206.3 615,213 603.3,219.7 			"/>
		</g>
	</g>
</g>
<g>
	<g>
		<polyline class="st4" points="685.6,213 796,213 796,122.7 		"/>
		<g>
			<polygon class="st3" points="802.7,124.7 796,113 789.3,124.7 			"/>
		</g>
	</g>
</g>
<path class="st4" d="M415.3,135h-102c-8.3,0-15-6.7-15-15V46c0-8.3,6.7-15,15-15h102c8.3,0,15,6.7,15,15v74
	C430.3,128.3,423.6,135,415.3,135z"/>
<path class="st4" d="M702,135H600c-8.3,0-15-6.7-15-15V46c0-8.3,6.7-15,15-15h102c8.3,0,15,6.7,15,15v74
	C717,128.3,710.3,135,702,135z"/>
<rect x="487.1" y="61.1" transform="matrix(0.7071 -0.7071 0.7071 0.7071 90.3954 384.2239)" class="st4" width="43.8" height="43.8"/>
<g>
	<path class="st3" d="M518.1,94h-3L509,84l-6.2,10H500l7.6-11.9l-7.1-10.9h2.9l5.7,9l5.7-9h2.8L510.5,82L518.1,94z"/>
</g>
<g>
	<g>
		<line class="st4" x1="717.6" y1="83" x2="755" y2="83"/>
		<g>
			<polygon class="st3" points="753,89.7 764.6,83 753,76.3 			"/>
		</g>
	</g>
</g>
<rect x="774.1" y="61.1" transform="matrix(0.7071 -0.7071 0.7071 0.7071 174.4565 587.1616)" class="st4" width="43.8" height="43.8"/>
<g>
	<path class="st3" d="M805.1,94h-3L796,84l-6.2,10H787l7.6-11.9l-7.1-10.9h2.9l5.7,9l5.7-9h2.8L797.5,82L805.1,94z"/>
</g>
<g>
	<rect x="634.8" y="202.7" class="st4" width="30.9" height="20.6"/>
	<polyline class="st4" points="634.8,202.7 650.3,213 665.7,202.7 	"/>
</g>
<g>
	<path class="st4" d="M137,41.6c-0.4-0.2-0.8-0.3-1.2-0.3c-0.6-1.6-1.1-2.6-1.3-2.8c0,0-0.1-0.1-0.2,0c-1.9,0.5-2.9,0.8-2.9,0.8
		l-0.1,0.1c0,0.8,0.1,1.8,0.3,3c-0.2,0.2-0.4,0.3-0.5,0.4s-0.2,0.3-0.4,0.5c-0.3-0.1-0.9-0.1-1.8-0.2c-0.8-0.1-1.3-0.1-1.4,0
		c0,0-0.1,0.2-0.2,0.7c-0.1,0.4-0.2,0.9-0.4,1.4c-0.1,0.5-0.2,0.8-0.2,0.8c0,0.1,0,0.1,0,0.2c0.2,0.2,1.2,0.7,2.8,1.3
		c0.1,0.4,0.2,0.8,0.3,1.2c-1.3,1.6-1.9,2.5-1.8,2.7l2.1,2.1c0.2,0.2,1.1-0.4,2.7-1.8c0.4,0.1,0.8,0.3,1.2,0.3
		c0.6,1.6,1.1,2.6,1.3,2.8c0,0,0.1,0.1,0.2,0c1.9-0.5,2.9-0.8,2.9-0.8c0.1-0.1,0.1-0.5,0-1.4c-0.1-0.8-0.2-1.4-0.2-1.8
		c0.2-0.2,0.4-0.3,0.5-0.4s0.2-0.3,0.4-0.5c0.3,0.1,0.9,0.1,1.8,0.2c0.8,0.1,1.3,0.1,1.4,0c0,0,0.3-1,0.8-2.9c0-0.1,0-0.1,0-0.2
		c-0.2-0.2-1.2-0.7-2.8-1.3c-0.1-0.4-0.2-0.8-0.3-1.2c1.3-1.6,1.9-2.5,1.8-2.7l-2.1-2.1C139.6,39.7,138.7,40.2,137,41.6z
		 M137.7,46.6c0,0.7-0.3,1.4-0.8,1.9s-1.2,0.8-1.9,0.8s-1.4-0.3-1.9-0.8s-0.8-1.2-0.8-1.9c0-0.8,0.3-1.4,0.8-1.9s1.2-0.8,1.9-0.8
		c0.8,0,1.4,0.3,1.9,0.8C137.5,45.2,137.7,45.9,137.7,46.6z"/>
	<path class="st4" d="M151.1,55c-0.3-0.4-0.6-0.7-0.9-0.9c0.3-1.7,0.4-2.7,0.3-3.1c0-0.1-0.1-0.1-0.1-0.1c-1.9-0.5-2.8-0.8-2.9-0.8
		l-0.1,0.1c-0.4,0.7-0.9,1.6-1.3,2.8c-0.3,0-0.5,0.1-0.6,0.1s-0.3,0.1-0.6,0.2c-0.3-0.2-0.7-0.6-1.4-1.1s-1.1-0.7-1.2-0.7
		c0,0-0.2,0.2-0.5,0.5s-0.7,0.6-1,1c-0.4,0.4-0.6,0.5-0.6,0.6s-0.1,0.1,0,0.2c0.1,0.3,0.7,1.2,1.8,2.6c-0.2,0.4-0.3,0.8-0.3,1.2
		c-2,0.7-2.9,1.2-2.9,1.4l0.7,2.9c0.1,0.2,1.1,0.2,3.2-0.1c0.3,0.3,0.6,0.6,0.9,0.9c-0.3,1.7-0.4,2.7-0.3,3.1c0,0.1,0.1,0.1,0.1,0.1
		c1.9,0.5,2.9,0.8,2.9,0.8c0.1,0,0.3-0.4,0.7-1.2s0.6-1.3,0.7-1.7c0.3,0,0.5-0.1,0.6-0.1s0.3-0.1,0.6-0.2c0.3,0.2,0.7,0.6,1.4,1.1
		s1.1,0.8,1.2,0.7c0,0,0.8-0.7,2.2-2.1c0-0.1,0.1-0.1,0-0.2c-0.1-0.3-0.7-1.2-1.8-2.6c0.2-0.4,0.3-0.8,0.3-1.2
		c2-0.7,2.9-1.2,2.9-1.4l-0.7-2.9C154.2,54.7,153.1,54.7,151.1,55z M149.1,59.7c-0.4,0.6-0.9,1.1-1.7,1.2c-0.7,0.2-1.4,0.1-2-0.3
		s-1.1-0.9-1.2-1.7c-0.2-0.7-0.1-1.4,0.3-2c0.4-0.7,0.9-1.1,1.6-1.2c0.7-0.2,1.4-0.1,2,0.3s1.1,0.9,1.2,1.6
		C149.6,58.4,149.5,59.1,149.1,59.7z"/>
</g>
<g>
	<rect x="309.3" y="42.2" class="st4" width="28.6" height="20"/>
	<line class="st4" x1="309.9" y1="49" x2="338" y2="49"/>
	<line class="st4" x1="309.4" y1="55.7" x2="338" y2="55.7"/>
	<line class="st4" x1="317.3" y1="48.8" x2="317.3" y2="62.2"/>
</g>
<g>
	<path class="st4" d="M607.7,40.8c1.8,1,2.8,3,2.8,5.6c0,4.3-2.7,8.6-5.3,8.6c-2.7,0-5.3-4.3-5.3-8.6c0-2.6,1-4.5,2.8-5.6
		c0.8-0.5,1.7-0.7,2.6-0.7C606,40.1,606.9,40.3,607.7,40.8z"/>
	<path class="st4" d="M616.3,59.4l0.7,2.1c0.1,0.3,0,0.6-0.1,0.9c-0.2,0.2-0.4,0.4-0.7,0.4h-21.9c-0.3,0-0.6-0.1-0.7-0.4
		c-0.1-0.2-0.2-0.6-0.1-0.9l0.7-2.1c1-3.2,4.5-5.5,7.5-6c1.4,1.4,1.9,2.2,3.6,2.2c1.7,0,2.3-0.7,3.6-2.2
		C611.8,53.8,615.3,56.1,616.3,59.4z"/>
</g>
</svg>
